<svg xmlns="http://www.w3.org/2000/svg" width="157.243" height="35.94" viewBox="0 0 157.243 35.94">
  <g id="Group_153" data-name="Group 153" transform="translate(-453.288 -394.41)">
    <g id="Group_152" data-name="Group 152" transform="translate(453.288 394.41)">
      <g id="Group_150" data-name="Group 150" transform="translate(0 0)">
        <g id="Group_149" data-name="Group 149" transform="translate(0)">
          <path id="Path_108" data-name="Path 108" d="M567.268,80.874a5.082,5.082,0,0,0-.661-2.139,5.141,5.141,0,0,0-1.663-1.75,5.069,5.069,0,0,0-2.307-.79c-.116-.011-.6-.021-.693-.014l-.156.011a5.079,5.079,0,0,0-2.544.92,5.242,5.242,0,0,0-1.2,1.193,5.077,5.077,0,0,0-.91,2.321,5.668,5.668,0,0,0,0,1.29,5.069,5.069,0,0,0,.768,2.111,5.161,5.161,0,0,0,1.529,1.529,5.1,5.1,0,0,0,2.36.795c.155.013.638.013.789,0a5.029,5.029,0,0,0,1.9-.531,5.1,5.1,0,0,0,2.256-2.256,5.04,5.04,0,0,0,.531-1.9C567.282,81.512,567.282,81.029,567.268,80.874Z" transform="translate(-557.098 -71.952)" fill="#fff" fill-rule="evenodd"/>
          <path id="Path_109" data-name="Path 109" d="M592.213,74.674a7.24,7.24,0,0,0-2.783-3.955,6.923,6.923,0,0,0-1.041-.608,7.127,7.127,0,0,0-2.34-.673,10.384,10.384,0,0,0-1.4-.015,7.106,7.106,0,0,0-2.509.689,6.862,6.862,0,0,0-1.919,1.351,7.213,7.213,0,0,0-1.053,8.986,7.2,7.2,0,0,0,6.1,3.364,7.212,7.212,0,0,0,6.827-4.883A7.321,7.321,0,0,0,592.213,74.674Z" transform="translate(-564.981 -69.405)" fill="#fff" fill-rule="evenodd"/>
        </g>
        <path id="Path_110" data-name="Path 110" d="M609.039,103.144a2,2,0,0,0-1.365,1.013,1.771,1.771,0,0,0-.169.429l-.039.135-.006,4.19c0,3.054,0,4.228.014,4.332a2,2,0,0,0,1.181,1.5,2.085,2.085,0,0,0,1.244.092,2,2,0,0,0,1.435-1.477c.032-.144.033-.334.033-4.376v-4.225l-.049-.179a2.065,2.065,0,0,0-.828-1.146,1.8,1.8,0,0,0-.552-.253,1.548,1.548,0,0,0-.469-.052,2.3,2.3,0,0,0-.432.017" transform="translate(-576.036 -82.085)" fill="#fff" fill-rule="evenodd"/>
        <path id="Path_111" data-name="Path 111" d="M584.556,102.6a5.109,5.109,0,0,0-4.043-4.423c-.513-.1.284-.1-9.568-.1-4.953,0-9.034,0-9.069,0a5.119,5.119,0,0,0-4.708,4.263,39.187,39.187,0,0,0-.069,4.937c.008,4.547,0,4.272.1,4.771a5.062,5.062,0,0,0,1.444,2.632,4.461,4.461,0,0,0,.74.6,5.089,5.089,0,0,0,1.809.75c.49.1-.1.092,9.678.092h9.1l.255-.041a5.119,5.119,0,0,0,4.284-4.149c.082-.448.08-.372.08-4.843C584.589,103.114,584.587,102.843,584.556,102.6Zm-8.468,5.709a10.108,10.108,0,0,1-2.481,1.1,10.042,10.042,0,0,1-5.525,0,10.1,10.1,0,0,1-2.482-1.1,10.674,10.674,0,0,1-3.721-3.895,14.639,14.639,0,0,0,17.928,0A10.669,10.669,0,0,1,576.088,108.308Z" transform="translate(-557.098 -80.187)" fill="#fff" fill-rule="evenodd"/>
      </g>
      <g id="Group_151" data-name="Group 151" transform="translate(48.161 12.235)">
        <path id="Path_112" data-name="Path 112" d="M640.43,92.605a1.539,1.539,0,0,0-.512-1.15,2.006,2.006,0,0,0-1.442-.489,2.121,2.121,0,0,0-1.245.323,1.016,1.016,0,0,0-.456.874,1.162,1.162,0,0,0,.11.512,1.051,1.051,0,0,0,.386.41,2.947,2.947,0,0,0,.726.323,9.42,9.42,0,0,0,1.142.268,5.843,5.843,0,0,1,2.647,1.056,2.657,2.657,0,0,1,.914,2.191v.189a3.413,3.413,0,0,1-.276,1.395,2.934,2.934,0,0,1-.8,1.063,3.641,3.641,0,0,1-1.261.678,6.065,6.065,0,0,1-3.584-.071,3.83,3.83,0,0,1-1.379-.85,3.594,3.594,0,0,1-.835-1.277,4.407,4.407,0,0,1-.283-1.6v-.473h2.08v.378a2.176,2.176,0,0,0,.575,1.584,2.4,2.4,0,0,0,1.788.59,2.049,2.049,0,0,0,1.4-.409,1.269,1.269,0,0,0,.457-.977,1.411,1.411,0,0,0-.094-.512,1.093,1.093,0,0,0-.331-.441,2.291,2.291,0,0,0-.646-.354,5.7,5.7,0,0,0-1.04-.268,10.469,10.469,0,0,1-1.528-.371,4.249,4.249,0,0,1-1.205-.606,2.606,2.606,0,0,1-.8-.945,3.077,3.077,0,0,1-.283-1.386v-.095a2.858,2.858,0,0,1,.275-1.252,3.037,3.037,0,0,1,.772-1,3.571,3.571,0,0,1,1.2-.661,4.882,4.882,0,0,1,1.568-.236,5.037,5.037,0,0,1,1.733.276,3.717,3.717,0,0,1,1.268.748,3.119,3.119,0,0,1,.772,1.088,3.279,3.279,0,0,1,.26,1.292v.568h-2.08Z" transform="translate(-634.285 -89.013)" fill="#fff"/>
        <path id="Path_113" data-name="Path 113" d="M653.426,89.366h6.965v1.985h-4.884v2.521h4.7v1.985h-4.7V98.41h5.073V100.4h-7.154Z" transform="translate(-641.483 -89.146)" fill="#fff"/>
        <path id="Path_114" data-name="Path 114" d="M676.175,98.032h-3.75l-.537,2.364h-2.174l2.631-11.03h3.907l2.632,11.03h-2.174Zm-3.309-1.985h2.852l-1.277-5.641h-.283Z" transform="translate(-647.608 -89.146)" fill="#fff"/>
        <path id="Path_115" data-name="Path 115" d="M688.679,89.366h7.941v1.985h-2.931V100.4h-2.08V91.351h-2.931Z" transform="translate(-654.74 -89.146)" fill="#fff"/>
        <path id="Path_116" data-name="Path 116" d="M712.193,99.356h.284v-9.99h2.08V100.4h-4.065l-1.292-9.99h-.283v9.99h-2.08V89.366H710.9Z" transform="translate(-661.568 -89.146)" fill="#fff"/>
        <path id="Path_117" data-name="Path 117" d="M732.49,100.4h-3.624l-.5-8.382V90.5h-.379v1.513l-.5,8.382h-3.625l-.378-11.03h1.891l.252,8.382v1.418H726V97.748l.5-8.382h3.341l.5,8.382v1.418h.379V97.748l.252-8.382h1.891Z" transform="translate(-667.826 -89.146)" fill="#fff"/>
        <path id="Path_118" data-name="Path 118" d="M748.094,98.032h-3.749l-.537,2.364h-2.174l2.631-11.03h3.907L750.8,100.4H748.63Zm-3.308-1.985h2.851l-1.277-5.641h-.283Z" transform="translate(-674.653 -89.146)" fill="#fff"/>
        <path id="Path_119" data-name="Path 119" d="M760.6,89.366h7.941v1.985h-2.931V100.4h-2.08V91.351H760.6Z" transform="translate(-681.785 -89.146)" fill="#fff"/>
        <path id="Path_120" data-name="Path 120" d="M782.523,98.593a2.322,2.322,0,0,0,.985-.181,1.46,1.46,0,0,0,.6-.489,1.858,1.858,0,0,0,.292-.709,4.309,4.309,0,0,0,.079-.827V96.1h2.08v.283a4.182,4.182,0,0,1-1.031,3.033,4,4,0,0,1-3,1.064,3.954,3.954,0,0,1-2.994-1.151,4.667,4.667,0,0,1-1.1-3.356V93.519a5.92,5.92,0,0,1,.284-1.9,3.856,3.856,0,0,1,.819-1.418,3.594,3.594,0,0,1,1.293-.882,4.485,4.485,0,0,1,1.7-.307,4.922,4.922,0,0,1,1.734.283,3.365,3.365,0,0,1,1.268.819,3.484,3.484,0,0,1,.772,1.292,5.215,5.215,0,0,1,.26,1.7v.284h-2.08v-.284a3.4,3.4,0,0,0-.094-.787,2.087,2.087,0,0,0-.315-.709,1.64,1.64,0,0,0-.6-.512,2.037,2.037,0,0,0-.946-.2,1.921,1.921,0,0,0-.9.2,1.835,1.835,0,0,0-.631.535,2.279,2.279,0,0,0-.37.788,3.649,3.649,0,0,0-.118.938v2.773a4.081,4.081,0,0,0,.11.985,2.241,2.241,0,0,0,.346.78,1.569,1.569,0,0,0,.623.512A2.191,2.191,0,0,0,782.523,98.593Z" transform="translate(-688.489 -89.013)" fill="#fff"/>
        <path id="Path_121" data-name="Path 121" d="M796.735,89.366h2.08v4.507h3.561V89.366h2.08V100.4h-2.08V95.858h-3.561V100.4h-2.08Z" transform="translate(-695.374 -89.146)" fill="#fff"/>
      </g>
    </g>
  </g>
</svg>
